<svg xmlns="http://www.w3.org/2000/svg" version="1.1" xmlns:xlink="http://www.w3.org/1999/xlink" xmlns:svgjs="http://svgjs.dev/svgjs" width="1500" height="1500" viewBox="0 0 1500 1500"><rect width="1500" height="1500" fill="#000000"></rect><g transform="matrix(0.6666666666666666,0,0,0.6666666666666666,249.39393939393938,623.0941383886774)"><svg viewBox="0 0 396 101" data-background-color="#ffffff" preserveAspectRatio="xMidYMid meet" height="382" width="1500" xmlns="http://www.w3.org/2000/svg" xmlns:xlink="http://www.w3.org/1999/xlink"><g id="tight-bounds" transform="matrix(1,0,0,1,0.2400000000000091,-0.1695339421063693)"><svg viewBox="0 0 395.52 101.33906788421272" height="101.33906788421272" width="395.52"><g><svg viewBox="0 0 570.7985062098894 146.24845410854368" height="101.33906788421272" width="395.52"><g transform="matrix(1,0,0,1,0,42.381953272369294)"><svg viewBox="0 0 395.52 61.484547563805094" height="61.484547563805094" width="395.52"><g id="textblocktransform"><svg viewBox="0 0 395.52 61.484547563805094" height="61.484547563805094" width="395.52" id="textblock"><g><svg viewBox="0 0 395.52 61.484547563805094" height="61.484547563805094" width="395.52"><g transform="matrix(1,0,0,1,0,0)"><svg width="395.52" viewBox="3.7 -36.25 237.04000000000002 36.85" height="61.484547563805094" data-palette-color="#204282"><path d="M3.7 0L3.7-34.4 33.45-34.4 33.45-26.15 14.75-26.15 14.75-21.4 30.75-21.4 30.75-13.5 14.75-13.5 14.75-8.25 33.8-8.25 33.8 0 3.7 0ZM66.4 0L58.3 0 57.45-3.75Q54.55 0.6 49.05 0.6L49.05 0.6Q43.7 0.6 40.8-2.9 37.9-6.4 37.9-13.25L37.9-13.25Q37.9-20.05 40.8-23.53 43.7-27 49.05-27L49.05-27Q53.6-27 56.45-23.95L56.45-23.95 56.45-36.25 66.4-36.25 66.4 0ZM52.15-19.65Q47.85-19.65 47.85-14.5L47.85-14.5 47.85-11.85Q47.85-6.75 52.15-6.75L52.15-6.75Q54.35-6.75 55.45-8.3 56.55-9.85 56.55-12.35L56.55-12.35 56.55-14Q56.55-16.5 55.45-18.07 54.35-19.65 52.15-19.65L52.15-19.65ZM99.75 0L91.6 0 90.95-4Q89.4-1.85 86.87-0.63 84.35 0.6 81.55 0.6L81.55 0.6Q76.95 0.6 74.65-1.95 72.35-4.5 72.35-9.3L72.35-9.3 72.35-26.4 82.3-26.4 82.3-10.5Q82.3-8.8 83.17-7.78 84.05-6.75 85.65-6.75L85.65-6.75Q87.5-6.75 88.65-7.95 89.8-9.15 89.8-10.9L89.8-10.9 89.8-26.4 99.75-26.4 99.75 0ZM123.79-35Q128.74-35 132.69-33.5 136.64-32 138.97-29.08 141.29-26.15 141.29-21.95L141.29-21.95 130.74-21.95Q130.74-24.1 128.84-25.43 126.94-26.75 124.24-26.75L124.24-26.75Q120.34-26.75 118.34-24.68 116.34-22.6 116.34-18.8L116.34-18.8 116.34-15.6Q116.34-11.8 118.34-9.73 120.34-7.65 124.24-7.65L124.24-7.65Q126.94-7.65 128.84-8.93 130.74-10.2 130.74-12.2L130.74-12.2 122.94-12.2 122.94-19.2 141.29-19.2 141.29 0 135.59 0 134.49-3.4Q129.79 0.6 122.19 0.6L122.19 0.6Q113.64 0.6 109.34-3.88 105.04-8.35 105.04-17.2L105.04-17.2Q105.04-25.95 109.92-30.48 114.79-35 123.79-35L123.79-35ZM157.74 0L147.79 0 147.79-36.25 157.74-36.25 157.74 0ZM177.74-27Q184.69-27 188.66-23.48 192.64-19.95 192.64-13.2L192.64-13.2Q192.64-6.45 188.66-2.93 184.69 0.6 177.74 0.6L177.74 0.6Q170.79 0.6 166.84-2.9 162.89-6.4 162.89-13.2L162.89-13.2Q162.89-20 166.84-23.5 170.79-27 177.74-27L177.74-27ZM177.74-20.25Q172.84-20.25 172.84-14.6L172.84-14.6 172.84-11.75Q172.84-6.15 177.74-6.15L177.74-6.15Q182.69-6.15 182.69-11.75L182.69-11.75 182.69-14.6Q182.69-20.25 177.74-20.25L177.74-20.25ZM231.04 0L221.34 0 217.24-14.7 217.04-14.7 212.89 0 203.19 0 193.54-26.4 204.24-26.4 208.24-10.8 208.59-10.8 212.74-26.4 222.64-26.4 226.64-10.8 226.99-10.8 231.04-26.4 240.74-26.4 231.04 0Z" opacity="1" transform="matrix(1,0,0,1,0,0)" fill="#ffffff" class="wordmark-text-0" data-fill-palette-color="primary" id="text-0"></path></svg></g></svg></g></svg></g></svg></g><g transform="matrix(1,0,0,1,424.55005210134567,0)"><svg viewBox="0 0 146.24845410854368 146.24845410854368" height="146.24845410854368" width="146.24845410854368"><g><svg></svg></g><g id="icon-0"><svg viewBox="0 0 146.24845410854368 146.24845410854368" height="146.24845410854368" width="146.24845410854368"><g><path d="M0 73.124c0-40.385 32.739-73.124 73.124-73.124 40.385 0 73.124 32.739 73.124 73.124 0 40.385-32.739 73.124-73.124 73.124-40.385 0-73.124-32.739-73.124-73.124zM73.124 140.704c37.323 0 67.579-30.256 67.58-67.58 0-37.323-30.256-67.579-67.58-67.579-37.323 0-67.579 30.256-67.579 67.579 0 37.323 30.256 67.579 67.579 67.58z" data-fill-palette-color="accent" fill="#ffffff" stroke="transparent"></path></g><g transform="matrix(1,0,0,1,58.39425087774377,33.98026706422446)"><svg viewBox="0 0 29.459952353056135 78.28791998009476" height="78.28791998009476" width="29.459952353056135"><g><svg xmlns="http://www.w3.org/2000/svg" xmlns:xlink="http://www.w3.org/1999/xlink" version="1.1" x="0" y="0" viewBox="31.281736897641462 5.843 33.18688398646074 88.192" enable-background="new 0 0 100 100" xml:space="preserve" height="78.28791998009476" width="29.459952353056135" class="icon-cg-0" data-fill-palette-color="accent" id="cg-0"><path fill="#ffffff" d="M45.449 19.144c-7.641 18.075 17.768 29.46 18.973 51.125 0.812 14.602-9.163 20.697-15.878 23.766-9.784-3.648-15.538-8.717-15.998-16.984-0.552-9.925 9.412-13.374 10.719-23.492 1.063-8.234-3.762-14.247-3.074-22.069C40.762 24.984 45.449 19.144 45.449 19.144z" data-fill-palette-color="accent"></path><path fill="#ffffff" d="M51.87 10.262c-13.112 19.692 4.755 31.374 7.854 39.535C70.889 38.297 44.696 29.923 51.87 10.262z" data-fill-palette-color="accent"></path><path fill="#ffffff" d="M37.663 43c9.752 10.3-3.055 19.25-4.994 24.25C26.454 58.06 43.478 52.821 37.663 43z" data-fill-palette-color="accent"></path><path fill="#ffffff" d="M53.282 5.843c6.165 3.271 1.6 9.456 1.481 12.092C50.421 14.625 57.536 9.509 53.282 5.843z" data-fill-palette-color="accent"></path></svg></g></svg></g></svg></g></svg></g></svg></g><defs></defs></svg><rect width="395.52" height="101.33906788421272" fill="none" stroke="none" visibility="hidden"></rect></g></svg></g></svg>